<?xml version="1.0" standalone="no"?>
<svg viewBox="0 0 200 200" xmlns="http://www.w3.org/2000/svg">
  <path fill="#FFD6E8" d="M44.5,-71.7C53.1,-63.8,52.1,-43.6,55.6,-27.8C59.2,-11.9,67.3,-0.6,70.1,13.2C73,26.9,70.6,43,62.3,55.7C54,68.4,39.8,77.6,25.5,77.6C11.3,77.5,-3,68.2,-19.3,64.1C-35.6,60,-53.8,61.3,-66.9,53.8C-80,46.3,-88,30,-88.7,13.8C-89.4,-2.4,-82.8,-18.6,-74.7,-33.2C-66.6,-47.7,-56.9,-60.6,-44.2,-66.6C-31.5,-72.5,-15.7,-71.6,1.1,-73.4C18,-75.1,36,-79.6,44.5,-71.7Z" transform="translate(100 100)" />
</svg>
